<?xml version="1.0" encoding="UTF-8"?>
<svg xmlns="http://www.w3.org/2000/svg" width="150" height="44" viewBox="0 0 150 44" fill="none">
  <g clip-path="url(#clip0_235_359)">
    <path d="M49.6103 39.9742C49.3107 39.9561 49.0219 39.8561 48.7752 39.6851C48.5286 39.5141 48.3336 39.2787 48.2116 39.0046C47.974 38.4911 47.9385 38.2098 47.9385 36.287V34.4708H48.9055V36.2215C48.9055 37.6117 48.9246 38.0377 48.9929 38.3054C49.1595 38.95 49.5065 39.2176 50.1129 39.1739C50.2668 39.1743 50.4181 39.1344 50.5518 39.0582C50.6855 38.982 50.7969 38.8722 50.875 38.7397C51.0854 38.4283 51.1209 38.076 51.1209 36.2297V34.4708H52.0852V36.3307C52.0852 38.3518 52.0661 38.5294 51.7656 39.0756C51.3913 39.7666 50.6073 40.0916 49.6048 39.9742H49.6103ZM74.5424 39.9277C74.1955 39.8403 73.8486 39.6874 73.8486 39.6246C73.8486 39.5618 74.0234 38.8981 74.0453 38.8626C74.1691 38.8945 74.2897 38.9375 74.4058 38.9909C75.3838 39.387 76.2907 39.133 76.2907 38.4611C76.2907 38.0541 76.1241 37.8848 75.4029 37.5707C74.4304 37.1446 74.0917 36.836 73.9606 36.257C73.7858 35.4677 74.2693 34.7466 75.1516 34.4899C75.6242 34.3533 76.7114 34.4353 77.0201 34.6346C77.0829 34.6756 77.0802 34.7439 76.9982 35.0361C76.9723 35.1732 76.9163 35.3029 76.8343 35.4158C76.7394 35.4152 76.646 35.3928 76.5612 35.3502C76.1847 35.1939 75.7641 35.1804 75.3783 35.312C75.0341 35.4622 74.9112 35.6506 74.9522 35.9647C74.9932 36.2788 75.1953 36.4454 75.911 36.7486C76.583 37.0217 76.9245 37.2785 77.1348 37.639C77.2703 37.8544 77.3264 38.1104 77.2932 38.3628C77.3154 38.6709 77.2365 38.9779 77.0683 39.2372C76.9002 39.4964 76.6522 39.6938 76.3617 39.7994C76.0565 39.9348 75.7218 39.9902 75.3893 39.9605C75.1093 39.9736 74.8287 39.9626 74.5506 39.9277H74.5424ZM80.5658 39.9441L80.3254 39.9168V34.5445L80.6724 34.509C81.4222 34.4487 82.1763 34.4633 82.9233 34.5527C84.1908 34.8258 84.871 35.6998 84.8764 37.0654C84.8764 38.5594 84.1826 39.5044 82.8249 39.8458C82.0763 39.9454 81.3203 39.9783 80.5658 39.9441ZM82.8386 38.9691C83.4942 38.6468 83.7974 38.1333 83.8357 37.2785C83.8876 36.1013 83.3931 35.4376 82.3305 35.2628C82.0921 35.2248 81.8499 35.2156 81.6093 35.2355L81.2897 35.2765V37.1883C81.2897 38.2426 81.3088 39.1248 81.3334 39.1493C81.5275 39.1812 81.7248 39.1886 81.9207 39.1712C82.2399 39.187 82.5573 39.1153 82.8386 38.9636V38.9691ZM90.9599 39.9441L90.7195 39.9168V34.5445L91.0692 34.509C91.8182 34.4487 92.5713 34.4634 93.3174 34.5527C94.5849 34.8258 95.2678 35.6998 95.2705 37.0654C95.2705 38.5594 94.5794 39.5044 93.219 39.8458C92.4704 39.9455 91.7144 39.9784 90.9599 39.9441ZM93.2354 38.9691C93.891 38.6468 94.1942 38.1333 94.2325 37.2785C94.2844 36.1013 93.7872 35.4376 92.7246 35.2628C92.4862 35.2245 92.244 35.2154 92.0034 35.2355L91.6865 35.2765V37.1883C91.6865 38.2426 91.7057 39.1248 91.7275 39.1493C91.9216 39.1811 92.1189 39.1884 92.3148 39.1712C92.6349 39.1874 92.9533 39.1156 93.2354 38.9636V38.9691ZM107.151 39.9387L106.91 39.9168V34.539L107.334 34.4981C108.033 34.4325 109.232 34.4981 109.494 34.6073C110.12 34.8804 110.396 35.241 110.396 35.8036C110.4 35.9687 110.375 36.1334 110.322 36.2898C110.173 36.5366 109.968 36.7452 109.724 36.8988L109.557 36.9862L109.789 37.1064C110.035 37.2063 110.244 37.3778 110.39 37.5986C110.536 37.8193 110.613 38.0789 110.609 38.3436C110.609 39.163 110.079 39.7092 109.055 39.895C108.426 39.9791 107.79 39.9938 107.159 39.9387H107.151ZM109.014 39.1029C109.167 39.0523 109.301 38.957 109.399 38.8293C109.498 38.7016 109.555 38.5473 109.565 38.3865C109.575 38.2256 109.536 38.0655 109.454 37.9269C109.372 37.7883 109.25 37.6776 109.104 37.6089C108.869 37.5038 108.615 37.4471 108.358 37.4423L107.875 37.4096V38.2917C107.875 38.9445 107.894 39.1848 107.946 39.2094C108.305 39.2438 108.668 39.2076 109.014 39.1029ZM108.932 36.5793C109.07 36.5331 109.191 36.4448 109.276 36.3268C109.362 36.2088 109.409 36.0669 109.41 35.921C109.41 35.4376 109.066 35.2109 108.317 35.2109H107.88V36.6858H108.293C108.512 36.6955 108.732 36.6592 108.937 36.5793H108.932ZM132.995 39.9277C132.648 39.8403 132.301 39.6874 132.301 39.6246C132.301 39.5618 132.476 38.8981 132.498 38.8626C132.622 38.8945 132.743 38.9375 132.859 38.9909C133.837 39.387 134.743 39.133 134.743 38.4611C134.743 38.0541 134.577 37.8848 133.856 37.5707C132.883 37.1446 132.544 36.836 132.413 36.257C132.239 35.4677 132.722 34.7466 133.604 34.4899C134.077 34.3533 135.164 34.4353 135.473 34.6346C135.536 34.6756 135.533 34.7439 135.451 35.0361C135.425 35.1732 135.369 35.3029 135.287 35.4158C135.192 35.4147 135.099 35.3923 135.014 35.3502C134.637 35.1939 134.217 35.1804 133.831 35.312C133.487 35.4622 133.364 35.6506 133.408 35.9647C133.451 36.2788 133.648 36.4454 134.364 36.7486C135.036 37.0217 135.377 37.2785 135.588 37.639C135.723 37.8544 135.779 38.1104 135.746 38.3628C135.768 38.6709 135.689 38.9779 135.521 39.2372C135.353 39.4964 135.105 39.6938 134.815 39.7994C134.51 39.9345 134.176 39.99 133.845 39.9605C133.564 39.9736 133.282 39.9626 133.003 39.9277H132.995ZM138.202 39.8786C137.783 39.7659 137.402 39.5414 137.101 39.2292C136.8 38.917 136.589 38.5287 136.492 38.106C136.392 37.5524 136.392 36.9854 136.492 36.4318C136.844 35.1508 137.858 34.4134 139.275 34.4161C139.762 34.4161 140.368 34.5254 140.477 34.6264C140.513 34.6619 140.499 34.8204 140.436 35.0634C140.36 35.3748 140.324 35.4376 140.251 35.4048C140.099 35.3549 139.945 35.3139 139.789 35.2819C139.312 35.1882 138.817 35.2425 138.371 35.4376C137.344 35.9593 137.085 37.6554 137.885 38.6058C138.322 39.1248 139.322 39.3214 140.139 39.0456L140.346 38.9773L140.409 39.2886C140.437 39.4231 140.458 39.5589 140.472 39.6956C140.472 39.8513 140.1 39.9332 139.278 39.9687C138.912 40.0144 138.541 39.9875 138.185 39.8895L138.202 39.8786ZM145.657 39.9441L145.416 39.9168V34.5445L145.766 34.509C146.515 34.4487 147.268 34.4634 148.014 34.5527C149.282 34.8258 149.962 35.6998 149.967 37.0654C149.967 38.5594 149.273 39.5044 147.916 39.8458C147.167 39.9454 146.411 39.9783 145.657 39.9441ZM147.929 38.9691C148.588 38.6468 148.888 38.1333 148.926 37.2785C148.981 36.1013 148.484 35.4376 147.421 35.2628C147.183 35.2245 146.941 35.2154 146.7 35.2355L146.381 35.2765V37.1883C146.381 38.2426 146.4 39.1248 146.424 39.1493C146.618 39.1812 146.816 39.1886 147.012 39.1712C147.331 39.187 147.648 39.1153 147.929 38.9636V38.9691ZM53.2762 37.1965V34.4653H54.3853L55.1583 35.7544C55.579 36.4673 56.0898 37.3932 56.2947 37.7919L56.6662 38.5348L56.6416 36.4973L56.6198 34.4598L57.0678 34.4762L57.5131 34.4926L57.5294 37.2074L57.5431 39.9196L57.0186 39.9032L56.4941 39.8868L55.7894 38.696C55.4042 38.0377 54.8742 37.0927 54.6175 36.5929L54.1476 35.6834L54.1777 37.8001L54.2077 39.9168H53.2817L53.2762 37.1965ZM58.6167 37.1965V34.4653H59.581V39.9277H58.6167V37.1965ZM61.0888 37.2703L60.2202 34.539C60.201 34.4871 60.3294 34.468 60.7419 34.468C60.9245 34.4598 61.1074 34.469 61.2883 34.4953C61.2883 34.5117 61.5041 35.2492 61.7636 36.1341C62.0231 37.019 62.3099 37.994 62.3727 38.2945C62.4059 38.4833 62.4637 38.667 62.5448 38.8407C62.5667 38.8407 62.5995 38.7451 62.6213 38.6304C62.6978 38.2344 63.7823 34.6701 63.8752 34.5336C64.2206 34.4743 64.5724 34.4605 64.9214 34.4926C64.9214 34.4926 64.5062 35.7189 63.9981 37.202L63.0802 39.895L62.5093 39.9114L61.9411 39.9277L61.0888 37.2703ZM65.4322 37.1965V34.4653H68.5573V35.3174H66.3993V36.683L67.4072 36.6994L68.4152 36.7158V37.5106L67.4045 37.527L66.3965 37.5407L66.4102 38.3218L66.4266 39.1002L68.672 39.1302V39.925H65.4404L65.4322 37.1965ZM69.5298 37.232V34.539L70.0187 34.4981C70.2919 34.4762 70.8383 34.468 71.2289 34.4981C71.8435 34.5199 71.9938 34.5445 72.2615 34.6674C72.5408 34.7788 72.7746 34.9806 72.9257 35.2405C73.0767 35.5005 73.1362 35.8036 73.0946 36.1013C73.0707 36.3489 72.9848 36.5865 72.8449 36.7922C72.7051 36.9979 72.5157 37.1651 72.2943 37.2785L72.1358 37.3604L72.3462 37.4997C72.633 37.6881 72.786 38.0159 73.0263 38.9472C73.1411 39.3815 73.2558 39.783 73.2859 39.8376C73.3159 39.8922 73.2859 39.9387 72.8242 39.9387C72.2205 39.9387 72.2779 40.0124 72.032 39.0019C71.9651 38.7161 71.8793 38.4351 71.7752 38.1606C71.6332 37.8629 71.3436 37.7236 70.8656 37.7236H70.4941V39.9387H69.5298V37.232ZM71.6113 36.8333C71.7598 36.7842 71.8892 36.6898 71.9813 36.5634C72.0735 36.4371 72.1236 36.285 72.1249 36.1286C72.1454 35.9766 72.1203 35.822 72.0527 35.6844C71.985 35.5467 71.878 35.4323 71.7452 35.3557C71.5248 35.2486 71.2781 35.2078 71.0349 35.2382H70.5214L70.5077 36.104L70.4913 36.9698H70.9038C71.1474 36.9841 71.3906 36.9371 71.6113 36.8333ZM78.2193 37.1965V34.4653H79.1972V39.9277H78.2302L78.2193 37.1965ZM85.2315 39.824C85.39 39.3159 86.8159 34.7958 86.8706 34.6538L86.9307 34.468L88.1845 34.5008L88.8592 36.6011C89.2307 37.7564 89.6214 38.9773 89.7279 39.3132L89.9191 39.925H88.8674L88.6653 39.2859C88.5533 38.9336 88.4468 38.5894 88.4249 38.5157C88.3894 38.3901 88.3785 38.3873 87.5316 38.4037L86.6766 38.4201L86.54 38.8735L86.316 39.6246L86.2286 39.925H85.7178C85.2589 39.925 85.2097 39.925 85.2397 39.824H85.2315ZM88.1599 37.5707C88.1599 37.527 88.0588 37.161 87.9359 36.7513C87.813 36.3416 87.6628 35.8555 87.6054 35.6588L87.5016 35.2901L87.3732 35.8009C87.3022 36.074 87.1574 36.5957 87.0509 36.9398C86.9443 37.2839 86.8542 37.5871 86.8542 37.6089C87.0695 37.6472 87.2887 37.66 87.5071 37.6472C88.037 37.6472 88.1599 37.6308 88.1599 37.5652V37.5707ZM96.1146 37.1965V34.4653H99.2369V35.3174H97.0789V36.683L98.0869 36.6994L99.0949 36.7158V37.5106L98.0869 37.527L97.0762 37.5407L97.0926 38.3218L97.109 39.1002L99.3517 39.1302V39.925H96.1173L96.1146 37.1965ZM101.477 39.824C101.635 39.3159 103.061 34.7958 103.116 34.6538L103.176 34.468L104.433 34.5008L105.107 36.6011L105.968 39.305L106.162 39.9168H105.107L104.908 39.2777C104.796 38.9254 104.687 38.5812 104.668 38.5075C104.629 38.3819 104.621 38.3791 103.774 38.3955L102.917 38.4119L102.783 38.8653C102.706 39.1138 102.605 39.4525 102.559 39.6164L102.471 39.9168H101.96C101.499 39.9168 101.452 39.9168 101.48 39.8158L101.477 39.824ZM104.408 37.5707C104.346 37.2939 104.271 37.0204 104.181 36.7513C104.058 36.3498 103.908 35.8555 103.851 35.6588L103.747 35.2901L103.619 35.8009C103.55 36.074 103.403 36.5957 103.296 36.9398C103.19 37.2839 103.1 37.5871 103.1 37.6089C103.316 37.6473 103.536 37.6601 103.755 37.6472C104.282 37.6472 104.408 37.6308 104.408 37.5652V37.5707ZM111.51 37.1965V34.4653H114.635V35.3174H112.477V36.683L113.485 36.6994L114.493 36.7158V37.5106L113.483 37.527L112.472 37.5407L112.488 38.3218L112.505 39.1002L114.747 39.1302V39.925H111.51V37.1965ZM115.608 37.232V34.539L116.1 34.4981C116.373 34.4762 116.919 34.468 117.307 34.4981C117.924 34.5199 118.072 34.5445 118.342 34.6674C118.619 34.7807 118.851 34.9834 118.999 35.2433C119.148 35.5031 119.205 35.8051 119.162 36.1013C119.139 36.3489 119.054 36.5867 118.915 36.7925C118.775 36.9984 118.586 37.1656 118.364 37.2785L118.206 37.3604L118.416 37.4997C118.703 37.6881 118.856 38.0159 119.096 38.9472C119.211 39.3815 119.326 39.783 119.356 39.8376C119.386 39.8922 119.356 39.9387 118.894 39.9387C118.29 39.9387 118.348 40.0124 118.102 39.0019C118.036 38.7156 117.949 38.4345 117.842 38.1606C117.7 37.8629 117.414 37.7236 116.936 37.7236H116.567V39.9387H115.6L115.608 37.232ZM117.692 36.8333C117.841 36.7842 117.97 36.6898 118.062 36.5634C118.154 36.4371 118.205 36.285 118.206 36.1286C118.226 35.9764 118.2 35.8217 118.132 35.6841C118.064 35.5465 117.956 35.4322 117.823 35.3557C117.603 35.248 117.356 35.2071 117.113 35.2382H116.594V36.104L116.578 36.9698H116.99C117.234 36.9841 117.477 36.9371 117.698 36.8333H117.692ZM121.175 37.6226V35.3229H119.626V34.4708H123.658V35.3229H122.126V39.925H121.159L121.175 37.6226ZM123.361 39.824C123.522 39.3159 124.945 34.7958 125 34.6538L125.06 34.468L126.316 34.5008L126.991 36.6011C127.362 37.7564 127.75 38.9773 127.857 39.3132L128.051 39.925H126.996L126.797 39.2859C126.685 38.9336 126.576 38.5894 126.557 38.5157C126.518 38.3901 126.51 38.3873 125.663 38.4037L124.806 38.4201L124.672 38.8735C124.595 39.122 124.497 39.4607 124.448 39.6246L124.36 39.925H123.849C123.388 39.925 123.341 39.925 123.369 39.824H123.361ZM126.292 37.5707C126.23 37.2939 126.154 37.0204 126.065 36.7513C125.942 36.3498 125.792 35.8555 125.734 35.6588L125.631 35.2901L125.502 35.8009C125.434 36.074 125.289 36.5957 125.18 36.9398C125.071 37.2839 124.983 37.5871 124.983 37.6089C125.199 37.6473 125.419 37.6601 125.639 37.6472C126.166 37.6472 126.292 37.6308 126.292 37.5652V37.5707ZM130.496 37.1965V34.4653H131.46V39.9277H130.496V37.1965ZM141.343 37.1965V34.4653H144.457V35.3174H142.299V36.683L143.307 36.6994L144.315 36.7158V37.5106L143.307 37.527L142.297 37.5407L142.313 38.3218L142.327 39.1002L144.572 39.1302V39.925H141.335L141.343 37.1965ZM94.7815 28.7871C93.2123 28.6072 91.7114 28.0444 90.4108 27.1484C89.84 26.7175 89.3179 26.2257 88.8538 25.6817L88.7308 25.5096L90.3999 24.2478C91.3205 23.5541 92.1072 22.9723 92.1509 22.9559C92.1946 22.9395 92.3476 23.057 92.5361 23.2673C92.9473 23.7637 93.4645 24.1617 94.0498 24.432C94.635 24.7024 95.2733 24.8382 95.9179 24.8295C97.3821 24.8459 98.1224 24.439 98.2016 23.5759C98.2337 23.4037 98.222 23.2261 98.1676 23.0596C98.1132 22.893 98.0178 22.7428 97.8902 22.6227C97.5761 22.3086 97.2155 22.1502 95.3743 21.5166C93.0906 20.73 92.3258 20.3449 91.4653 19.5501C90.7159 18.8461 90.2074 17.9239 90.012 16.9145C89.9045 16.1907 89.8944 15.4559 89.982 14.7295C90.318 12.8176 91.621 11.3919 93.6616 10.7146C94.4553 10.4602 95.287 10.3447 96.1201 10.3732C98.5622 10.3732 100.524 11.0778 101.857 12.4271L102.152 12.7275L100.778 14.1778L99.4118 15.6117L99.0321 15.2948C98.5345 14.8938 97.9557 14.6058 97.3357 14.4509C96.7092 14.3244 96.0637 14.3244 95.4372 14.4509C94.5576 14.724 94.2434 15.7619 94.8498 16.3628C95.1367 16.6495 95.2869 16.7124 97.2619 17.3815C99.7013 18.2009 100.685 18.698 101.542 19.5119C102.4 20.3258 102.813 21.2189 102.947 22.549C103.1 24.0757 102.673 25.6544 101.854 26.7004C101.034 27.7465 99.7696 28.3938 98.1197 28.6888C97.017 28.8139 95.9053 28.8404 94.7979 28.768L94.7815 28.7871ZM111.245 28.7871C110.844 28.743 110.446 28.6774 110.052 28.5904C108.274 28.2128 106.65 27.3109 105.39 26.0013C104.129 24.6916 103.291 23.0344 102.982 21.2434C102.83 20.1971 102.821 19.1349 102.955 18.0862C103.182 16.5494 103.802 15.0974 104.755 13.8709C105.709 12.6444 106.963 11.6851 108.396 11.086C109.528 10.6037 110.748 10.3664 111.978 10.3896C115.15 10.3896 117.597 11.5139 119.318 13.7626C119.604 14.1368 119.643 14.2105 119.572 14.2761C119.454 14.3908 116.045 16.7069 116.02 16.685L115.829 16.4119C115.64 16.1644 115.428 15.9341 115.198 15.7236C114.379 14.9507 113.387 14.5847 112.095 14.5793C110.803 14.5738 109.959 14.9016 109.156 15.7182C108.265 16.6222 107.825 17.7502 107.765 19.2906C107.677 20.4039 107.914 21.5188 108.448 22.4998C108.707 22.9823 109.06 23.4075 109.487 23.7497C109.915 24.0919 110.407 24.344 110.934 24.4909C111.308 24.6083 111.461 24.622 112.237 24.6165C113.251 24.6165 113.729 24.51 114.45 24.1549C115.129 23.7545 115.706 23.202 116.135 22.5408L116.359 22.1639L118.118 23.3001C119.088 23.9228 119.913 24.469 119.957 24.51C120.001 24.551 119.987 24.6547 119.736 25.0289C119.363 25.6078 118.922 26.1397 118.422 26.613C117.037 27.9431 115.387 28.6259 113.147 28.798C112.511 28.8651 111.87 28.8651 111.235 28.798L111.245 28.7871ZM83.7482 19.5774V10.5889L88.5478 10.5589V28.5659H83.7318L83.7482 19.5774ZM120.315 19.5774V10.5644H132.88V14.6612H125.144V17.6137H131.621L131.591 21.4374L128.368 21.451L125.144 21.4674V24.5318H133.268V28.5659H120.315V19.5774ZM134.006 19.5774V10.5644L138.054 10.5917C141.879 10.6135 142.135 10.6217 142.753 10.7364C145.678 11.2827 147.817 12.8122 149.036 15.2293C149.956 17.0647 150.246 19.5255 149.801 21.7241C149.09 25.2338 146.632 27.6564 143.012 28.4156C142.4 28.5467 142.324 28.5495 138.202 28.5659L134.011 28.585L134.006 19.5774ZM141.035 24.4936C142.712 24.3051 143.897 23.4994 144.586 22.0847C144.979 21.2653 145.053 20.8775 145.053 19.6129C145.053 18.3484 144.979 17.9551 144.553 17.0865C144.178 16.2434 143.51 15.5643 142.674 15.1747C141.876 14.7814 141.493 14.7104 140.062 14.7022H138.811L138.797 19.5583C138.797 22.2294 138.797 24.4472 138.797 24.4745C138.833 24.5674 140.245 24.5728 141.029 24.4745L141.035 24.4936Z" fill="#6E7677"></path>
    <path d="M21.1624 43.9481C20.6498 43.8382 20.1674 43.6181 19.7485 43.3031C19.3296 42.988 18.9843 42.5856 18.7366 42.1236C18.4368 41.6076 18.2944 41.0152 18.3269 40.4194C18.3053 40.0536 18.3592 39.6873 18.4853 39.3433C18.6574 38.7981 18.9625 38.3044 19.3731 37.9066C20.015 37.2567 20.8849 36.8823 21.7983 36.8629C22.7117 36.8435 23.5967 37.1807 24.2656 37.8029C24.7199 38.2055 25.0601 38.7208 25.2517 39.2968C25.3885 39.6497 25.4472 40.028 25.4238 40.4057C25.4549 41.0011 25.3136 41.5928 25.0168 42.11C24.6804 42.6771 24.22 43.1608 23.6701 43.5248C22.9072 43.94 22.0261 44.0844 21.1706 43.9345L21.1624 43.9481ZM7.96556 38.5075C7.33669 38.3271 6.76831 37.9801 6.3206 37.5032C5.87289 37.0262 5.56252 36.4371 5.42236 35.7981C5.24923 34.9393 5.3867 34.0469 5.81026 33.2799C6.17839 32.7218 6.66884 32.2548 7.24439 31.9143C8.03891 31.4833 8.96739 31.3696 9.84248 31.5962C10.7176 31.8228 11.4741 32.3729 11.9594 33.1354C12.4447 33.8979 12.6227 34.8161 12.4574 35.7046C12.2921 36.5932 11.7958 37.386 11.0688 37.923C10.6682 38.2121 10.2183 38.4259 9.74116 38.5539C9.15259 38.6724 8.54559 38.665 7.9601 38.5321L7.96556 38.5075ZM34.2144 37.9121C33.4673 37.7389 32.817 37.2815 32.4014 36.6371C31.9858 35.9926 31.8376 35.2117 31.9881 34.4598C32.1192 33.9125 32.3994 33.4121 32.7977 33.0144C33.196 32.6166 33.6968 32.337 34.2444 32.2066C34.9711 32.0631 35.7252 32.2003 36.3548 32.5905C36.9843 32.9808 37.4426 33.595 37.6372 34.3096C37.6907 34.5601 37.7182 34.8155 37.7192 35.0716C37.7274 35.5352 37.6207 35.9935 37.4085 36.4057C37.1964 36.818 36.8855 37.1713 36.5036 37.4341C36.1742 37.6646 35.8015 37.8258 35.408 37.9079C35.0145 37.9901 34.6085 37.9915 34.2144 37.9121ZM21.1323 31.2889C20.6324 31.164 20.1747 30.9085 19.806 30.5486C19.4374 30.1887 19.1711 29.7372 19.0344 29.2405C18.9552 28.8963 18.9552 12.9542 19.0344 12.6128C19.1705 12.1084 19.4415 11.6506 19.8184 11.2887C20.1953 10.9268 20.6637 10.6745 21.1733 10.5589C21.7898 10.4652 22.4192 10.5034 23.0199 10.6709C23.4983 10.8441 23.92 11.1453 24.2389 11.5417C24.5577 11.938 24.7616 12.4144 24.8283 12.9187C24.8584 13.1044 24.8802 16.7096 24.8802 20.9266C24.8802 25.1436 24.8584 28.7461 24.8283 28.9346C24.7615 29.4385 24.5575 29.9144 24.2386 30.3103C23.9197 30.7062 23.4981 31.0069 23.0199 31.1796C22.4035 31.3366 21.7627 31.3737 21.1323 31.2889ZM37.6918 28.5577C37.1223 28.3879 36.6252 28.0338 36.2787 27.551C35.9323 27.0681 35.756 26.4839 35.7775 25.8901C35.7991 25.2962 36.0173 24.7263 36.3979 24.2699C36.7785 23.8135 37.2999 23.4964 37.8803 23.3683C38.4005 23.2628 38.9403 23.3141 39.4312 23.5158C39.9222 23.7174 40.3422 24.0602 40.6381 24.5008C40.9339 24.9414 41.0922 25.4599 41.0929 25.9906C41.0936 26.5212 40.9367 27.0402 40.6421 27.4816C40.376 27.8902 39.9962 28.212 39.5494 28.4074C39.2376 28.5814 38.8809 28.6585 38.525 28.6287C38.2502 28.6466 37.9743 28.6254 37.7055 28.5659L37.6918 28.5577ZM3.15505 25.6079C2.56314 25.5441 1.99709 25.3312 1.50981 24.9892C1.02253 24.6472 0.629936 24.1873 0.368723 23.6524C0.1195 23.1727 -0.00718786 22.6388 -5.60285e-05 22.0983C-0.0131302 21.6267 0.0735509 21.1576 0.254315 20.7218C0.435079 20.2859 0.705852 19.8932 1.04891 19.5692C1.36807 19.2276 1.75619 18.9576 2.18758 18.7773C2.61896 18.5969 3.08375 18.5103 3.55115 18.5232C4.01807 18.509 4.48263 18.5947 4.91371 18.7746C5.34479 18.9546 5.73243 19.2246 6.05064 19.5665C6.38325 19.8936 6.64741 20.2836 6.82772 20.7139C7.00803 21.1441 7.10089 21.6059 7.10089 22.0724C7.10089 22.5388 7.00803 23.0007 6.82772 23.4309C6.64741 23.8611 6.38325 24.2511 6.05064 24.5783C5.68388 24.968 5.23009 25.2654 4.72637 25.4463C4.22264 25.6272 3.68327 25.6863 3.15232 25.6189L3.15505 25.6079ZM35.512 19.927C34.8464 19.7786 34.2603 19.3866 33.8691 18.8282C33.4778 18.2697 33.3097 17.5851 33.3976 16.909C33.4663 16.464 33.6462 16.0436 33.9207 15.6868C34.1952 15.3299 34.5554 15.0481 34.9679 14.8675C35.3804 14.6869 35.8318 14.6133 36.2803 14.6537C36.7288 14.694 37.1598 14.8469 37.5334 15.0982C37.939 15.3648 38.2572 15.7447 38.4485 16.1907C38.6102 16.4826 38.6887 16.8132 38.6753 17.1466C38.7299 17.7044 38.5951 18.2643 38.2928 18.7362C38.0027 19.1915 37.5825 19.5492 37.0867 19.7629C36.5909 19.9767 36.0423 20.0367 35.512 19.9352V19.927ZM29.4804 14.5738C29.2088 14.4834 28.9589 14.3376 28.7464 14.1459C28.5338 13.9541 28.3634 13.7204 28.2457 13.4595C28.0489 12.9075 28.0489 12.3045 28.2457 11.7524C28.435 11.3249 28.7699 10.9784 29.1908 10.7747C29.4707 10.6181 29.7927 10.5532 30.1114 10.589C30.4066 10.5577 30.7047 10.6098 30.9719 10.7392C31.3994 10.928 31.7446 11.2644 31.9444 11.6869C32.1055 11.974 32.1706 12.3052 32.1301 12.6319C32.1301 13.1781 32.1301 13.2191 31.9362 13.5605C31.7204 13.9604 31.3852 14.2831 30.9773 14.4837C30.4965 14.6528 29.978 14.684 29.4804 14.5738ZM8.52829 13.1126C7.87337 13.0413 7.24776 12.8029 6.71152 12.4203C6.17528 12.0377 5.74641 11.5237 5.46606 10.9276C5.20623 10.4116 5.07857 9.83911 5.09455 9.26158C5.0712 8.38983 5.36206 7.53875 5.91406 6.86356C6.46737 6.17198 7.23697 5.68625 8.09941 5.48429C8.81749 5.3384 9.56116 5.3817 10.2575 5.60993C10.9883 5.86886 11.6223 6.34545 12.074 6.97554C12.5199 7.58307 12.7795 8.30718 12.821 9.0596C12.8624 9.81203 12.6841 10.5603 12.3077 11.2131C11.9312 11.866 11.373 12.3952 10.7009 12.7364C10.0289 13.0775 9.27211 13.2158 8.52283 13.1344L8.52829 13.1126ZM21.1952 8.25922C20.4277 8.11114 19.717 7.75128 19.1435 7.22033C18.57 6.68939 18.1565 6.00856 17.9499 5.25487C17.7872 4.57546 17.7769 3.86845 17.9199 3.1846C18.0909 2.54094 18.4082 1.94538 18.8469 1.44422C19.2856 0.943054 19.834 0.549784 20.4494 0.294971C20.9897 0.0835006 21.5683 -0.0128493 22.148 0.0120881C22.7277 0.0370256 23.2959 0.182702 23.8161 0.439792C24.3362 0.696881 24.797 1.05972 25.1689 1.50509C25.5408 1.95046 25.8155 2.46855 25.9756 3.02619C26.0952 3.41199 26.1388 3.81733 26.104 4.21974C26.14 4.92989 25.9631 5.63461 25.5959 6.24357C25.1977 6.85236 24.6835 7.37673 24.0826 7.78672C23.2092 8.28881 22.1855 8.46311 21.1952 8.27833V8.25922Z" fill="#BB0000"></path>
    <path d="M54.8851 28.8472C53.7371 28.7602 52.6152 28.4601 51.5771 27.9623C50.4112 27.3376 49.4674 26.3673 48.8754 25.1846C48.4592 24.3128 48.1827 23.381 48.0559 22.4233C47.9385 21.6914 47.933 21.4647 47.9111 15.9995L47.8893 10.3322H53.1806V15.7947C53.1806 19.4327 53.1997 21.4319 53.2434 21.7733C53.3147 22.368 53.474 22.9488 53.716 23.4967C54.235 24.5237 55.1993 25.0426 56.4477 24.9634C58.0403 24.8651 58.8843 23.9583 59.1794 22.0273C59.2477 21.5849 59.2613 20.5006 59.2641 15.9094V10.3322H64.5471V15.6854C64.5471 18.9192 64.5226 21.2844 64.487 21.6559C64.2849 23.7835 63.6484 25.3731 62.5066 26.5912C61.2746 27.9022 59.5017 28.6505 57.1907 28.8472C56.4244 28.9114 55.6541 28.9114 54.8879 28.8472H54.8851Z" fill="#BB0000"></path>
    <path d="M67.003 28.5522C67.003 28.5112 66.9702 25.567 66.9566 21.9973C66.9429 18.4276 66.9156 15.4642 66.891 15.3932L66.8473 15.2675H69.1283C70.9121 15.2675 71.4065 15.2812 71.4092 15.3385C71.4092 15.5024 71.625 16.9254 71.6496 16.9472C71.8146 16.8309 71.9642 16.6942 72.0949 16.5403C72.7227 15.884 73.5181 15.4117 74.395 15.1747C74.8703 15.0272 74.9631 15.019 75.9793 15.019C76.9108 15.019 77.1212 15.0381 77.5118 15.1446C78.3327 15.3541 79.0787 15.7885 79.6661 16.3989C80.2534 17.0093 80.6587 17.7714 80.8363 18.5996C81.0603 19.4982 81.0712 19.7495 81.0712 24.2451V28.615H75.8373V24.7176C75.8373 20.506 75.8373 20.3476 75.5341 19.7822C75.4027 19.5145 75.1932 19.2929 74.9333 19.1466C74.6734 19.0003 74.3752 18.9363 74.0781 18.9629C73.7499 18.9431 73.4232 19.021 73.1392 19.1868C72.8553 19.3526 72.6269 19.5987 72.4828 19.8942L72.2861 20.2548L72.2287 28.6041L69.6282 28.6178C67.5767 28.6314 67.0248 28.6178 67.0057 28.5631L67.003 28.5522Z" fill="#BB0000"></path>
  </g>
  <defs>
    <clipPath id="clip0_235_359">
      <rect width="150" height="44" fill="white"></rect>
    </clipPath>
  </defs>
</svg>
