<?xml version="1.0" encoding="UTF-8" standalone="no"?>
<svg
   id="Layer_2"
   data-name="Layer 2"
   viewBox="0 0 28.21 27.59"
   version="1.1"
   sodipodi:docname="logo.svg"
   inkscape:version="1.3 (0e150ed6c4, 2023-07-21)"
   xmlns:inkscape="http://www.inkscape.org/namespaces/inkscape"
   xmlns:sodipodi="http://sodipodi.sourceforge.net/DTD/sodipodi-0.dtd"
   xmlns="http://www.w3.org/2000/svg"
   xmlns:svg="http://www.w3.org/2000/svg">
  <sodipodi:namedview
     id="namedview4"
     pagecolor="#ffffff"
     bordercolor="#000000"
     borderopacity="0.25"
     inkscape:showpageshadow="2"
     inkscape:pageopacity="0.0"
     inkscape:pagecheckerboard="0"
     inkscape:deskcolor="#d1d1d1"
     inkscape:zoom="31.315694"
     inkscape:cx="14.082396"
     inkscape:cy="12.517685"
     inkscape:window-width="1920"
     inkscape:window-height="1046"
     inkscape:window-x="1920"
     inkscape:window-y="0"
     inkscape:window-maximized="1"
     inkscape:current-layer="Layer_1-2" />
  <defs
     id="defs1">
    <style
       id="style1">&#10;      .cls-1 {&#10;        fill: #751113;&#10;        stroke: #f1f2f2;&#10;        stroke-miterlimit: 10;&#10;        stroke-width: .05px;&#10;      }&#10;    </style>
  </defs>
  <g
     id="Layer_1-2"
     data-name="Layer 1">
    <g
       id="g4"
       transform="translate(0.0319329,-0.02016166)"
       style="stroke-width:0;stroke-dasharray:none">
      <path
         class="cls-1"
         d="M 0.03,14.51 C 0.07,12.94 0.43,11.19 1.12,9.5 2.15,7.01 3.74,4.97 5.96,3.47 7.51,2.42 9.21,1.74 11.06,1.46 c 1.58,-0.24 3.15,-0.16 4.69,0.23 2.06,0.53 3.88,1.55 5.46,2.98 1.59,1.44 2.77,3.18 3.52,5.19 0.39,1.04 0.53,2.13 0.54,3.25 0,0.2 0.01,0.41 0.02,0.61 0,0.07 0.04,0.16 -0.05,0.2 -0.11,0.04 -0.13,-0.07 -0.17,-0.14 C 24.44,12.8 23.65,11.99 22.63,11.42 21.81,10.96 20.93,10.74 20.01,10.67 19.58,10.64 19.6,10.65 19.75,10.25 20.07,9.39 20.17,8.51 20.04,7.6 19.94,6.88 19.82,6.14 19.51,5.48 19,4.4 18.15,3.63 17.11,3.08 15.56,2.27 13.89,2.05 12.17,2.19 10.4,2.33 8.74,2.82 7.17,3.67 5.4,4.63 4,5.98 2.91,7.67 2.22,8.74 1.75,9.9 1.41,11.13 c -0.52,1.86 -0.7,3.73 -0.43,5.64 0.27,1.94 0.95,3.72 2.01,5.35 1.03,1.58 2.32,2.9 3.83,4.02 0.12,0.09 0.2,0.2 0.07,0.31 C 6.76,26.57 6.71,26.91 6.41,26.7 4.28,25.17 2.59,23.26 1.45,20.87 0.76,19.42 0.33,17.9 0.13,16.31 0.06,15.79 0.05,15.28 0.03,14.51 Z"
         id="path1"
         style="stroke-width:0;stroke-dasharray:none" />
      <path
         class="cls-1"
         d="M 13.98,26.02 C 12.02,26.1 10.24,25.58 8.58,24.61 8.45,24.54 8.32,24.48 8.19,24.41 8.14,24.38 8.05,24.36 8.07,24.28 c 0.02,-0.08 0.1,-0.07 0.16,-0.07 0.65,0.01 1.27,-0.12 1.89,-0.31 1.47,-0.44 2.6,-1.32 3.42,-2.63 0.15,-0.24 0.19,-0.25 0.36,-0.03 0.68,0.88 1.56,1.47 2.6,1.84 0.74,0.26 1.48,0.54 2.29,0.48 1.51,-0.11 2.77,-0.78 3.85,-1.82 1.03,-0.99 1.77,-2.18 2.33,-3.5 0.82,-1.96 1.13,-4 0.92,-6.12 C 25.78,10.97 25.46,9.87 25.01,8.81 24.02,6.44 22.35,4.64 20.31,3.17 18.89,2.15 17.31,1.48 15.61,1.11 13.86,0.73 12.12,0.73 10.37,1.04 9.13,1.26 7.93,1.63 6.78,2.15 6.4,2.32 6.45,1.98 6.35,1.83 6.24,1.67 6.35,1.57 6.51,1.5 8.12,0.78 9.8,0.32 11.56,0.13 12.29,0.05 13.03,0 13.75,0.07 c 1.39,0.14 2.77,0.39 4.09,0.89 2,0.76 3.73,1.91 5.2,3.47 1.21,1.29 2.16,2.76 2.81,4.41 0.89,2.27 1.14,4.63 0.71,7.04 -0.56,3.12 -2.11,5.64 -4.63,7.52 -2.36,1.77 -5.03,2.65 -7.95,2.62 z"
         id="path2"
         style="stroke-width:0;stroke-dasharray:none" />
      <path
         class="cls-1"
         d="m 28.19,15.16 c -0.13,0.53 -0.21,1.07 -0.35,1.6 -0.36,1.43 -0.92,2.77 -1.67,4.03 -0.98,1.63 -2.24,3.02 -3.78,4.14 -1.95,1.42 -4.13,2.25 -6.51,2.53 -0.67,0.08 -1.33,0.13 -2,0.1 C 9.86,27.38 6.52,25.81 4.02,22.58 2.25,20.29 1.51,17.64 1.6,14.74 1.64,13.61 1.77,12.49 2.11,11.43 3,8.7 4.37,6.31 6.88,4.77 7.15,4.6 7.42,4.43 7.7,4.26 7.75,4.23 7.8,4.19 7.85,4.24 7.91,4.3 7.87,4.35 7.85,4.41 7.1,5.82 6.78,7.3 7.12,8.89 c 0.12,0.54 0.3,1.07 0.56,1.56 0.18,0.33 0.17,0.35 -0.19,0.4 -1.17,0.16 -2.14,0.73 -3.01,1.5 -0.71,0.62 -1.32,1.3 -1.62,2.23 -0.35,1.07 -0.41,2.15 -0.18,3.24 0.67,3.08 2.49,5.34 5.02,7.05 2.3,1.56 4.87,2.2 7.61,1.89 3.88,-0.44 7.14,-2.11 9.54,-5.31 0.92,-1.22 1.58,-2.57 2.05,-4.02 0.32,-1.01 0.54,-2.04 0.69,-3.09 0.06,-0.44 0.07,-0.43 0.5,-0.34 0.04,0 0.07,0.02 0.11,0.02 v 1.17 z"
         id="path3"
         style="stroke-width:0;stroke-dasharray:none" />
      <path
         class="cls-1"
         d="m 13.91,2.87 c 1.25,0.02 2.64,0.57 3.65,1.93 0.97,1.29 1.05,3.07 0.22,4.47 -0.42,0.71 -0.96,1.31 -1.7,1.7 -0.84,0.44 -1.74,0.5 -2.65,0.28 C 12.54,11.03 11.75,10.63 11.2,9.84 10.68,9.09 10.63,8.09 11.08,7.38 c 0.38,-0.6 0.93,-0.93 1.61,-0.88 0.7,0.06 1.25,0.44 1.61,1.07 0.1,0.17 0.17,0.35 0.21,0.54 0.03,0.13 0.03,0.24 -0.12,0.29 -0.14,0.05 -0.23,0 -0.28,-0.13 C 14,8.03 13.89,7.78 13.73,7.57 12.92,6.52 11.8,7.04 11.41,7.9 c -0.37,0.83 -0.07,1.68 0.79,2.27 0.5,0.35 1.05,0.62 1.65,0.72 0.64,0.11 1.28,-0.03 1.87,-0.3 C 17.48,9.77 18.26,7.78 17.58,5.95 17.03,4.46 15.91,3.68 14.41,3.41 12.7,3.1 11.26,3.62 10.15,4.96 8.97,6.38 8.79,8.35 10.02,10.07 c 0.64,0.9 1.37,1.69 2.41,2.13 0.92,0.39 1.87,0.41 2.84,0.28 1.03,-0.14 2.04,-0.38 3.06,-0.56 2.02,-0.36 4.22,1.05 5.02,2.76 0.67,1.45 0.55,2.85 -0.15,4.25 -0.5,1.01 -1.24,1.79 -2.24,2.28 -2,0.99 -4.33,0.39 -5.5,-1.7 -0.23,-0.41 -0.4,-0.85 -0.49,-1.32 -0.26,-1.23 0.12,-2.29 0.9,-3.21 0.61,-0.72 1.36,-1.23 2.33,-1.33 1.04,-0.11 2.04,0.5 2.32,1.51 0.31,1.11 -0.38,1.97 -1.51,2.26 -0.29,0.07 -0.58,0.04 -0.88,0 -0.14,-0.02 -0.25,-0.08 -0.23,-0.25 0.02,-0.17 0.14,-0.2 0.28,-0.19 0.17,0 0.35,0.02 0.52,0 0.57,-0.04 1.04,-0.25 1.26,-0.82 0.24,-0.63 0.01,-1.17 -0.44,-1.61 -0.54,-0.52 -1.18,-0.55 -1.84,-0.3 -0.72,0.28 -1.33,0.75 -1.76,1.37 -0.46,0.67 -0.61,1.46 -0.54,2.28 0.17,1.96 2.05,3.38 3.96,3.26 1.39,-0.09 2.4,-0.82 3.16,-1.95 0.73,-1.09 0.97,-2.28 0.64,-3.55 -0.41,-1.55 -1.37,-2.62 -2.92,-3.07 -1.74,-0.51 -4.42,0.26 -5.59,2.32 -0.54,0.95 -0.92,1.97 -1.3,2.99 -0.24,0.66 -0.37,1.36 -0.75,1.96 -0.69,1.09 -1.71,1.74 -2.92,2.07 C 7.12,22.62 4.94,21.19 4,18.94 3.53,17.8 3.46,16.63 3.89,15.47 c 0.52,-1.38 1.52,-2.23 2.95,-2.56 0.97,-0.22 1.92,-0.1 2.82,0.3 0.78,0.35 1.32,0.97 1.68,1.73 0.4,0.81 0.55,1.68 0.38,2.59 -0.22,1.25 -1.44,2.14 -2.59,1.87 -1.09,-0.25 -1.5,-1.15 -1.34,-2.17 0.06,-0.41 0.27,-0.76 0.55,-1.07 0.1,-0.11 0.19,-0.13 0.31,-0.04 0.12,0.09 0.13,0.2 0.04,0.31 -0.17,0.23 -0.3,0.48 -0.4,0.76 -0.27,0.77 0.18,1.56 0.98,1.7 0.95,0.17 1.83,-0.43 1.98,-1.4 0.34,-2.18 -0.85,-3.8 -2.88,-4.2 -1.31,-0.26 -2.9,0.5 -3.69,1.74 -0.77,1.21 -0.79,2.47 -0.25,3.77 0.47,1.13 1.25,1.93 2.34,2.45 1.94,0.92 4.49,0.11 5.39,-1.83 0.75,-1.6 0.84,-3.26 0.11,-4.92 -0.52,-1.17 -1.3,-2.16 -2.05,-3.17 C 9.86,10.84 9.46,10.37 9.18,9.83 8.81,9.14 8.67,8.38 8.71,7.6 8.79,6.09 9.33,4.79 10.54,3.84 11.4,3.16 12.41,2.89 13.88,2.88 Z"
         id="path4"
         style="stroke-width:0;stroke-dasharray:none" />
    </g>
  </g>
</svg>
